<?xml version="1.0" encoding="UTF-8"?>
<svg width="783px" height="98px" viewBox="0 0 783 98" version="1.1" xmlns="http://www.w3.org/2000/svg" xmlns:xlink="http://www.w3.org/1999/xlink">
    <!-- Generator: Sketch 54 (76480) - https://sketchapp.com -->
    <title>Group</title>
    <desc>Created with Sketch.</desc>
    <g id="Page-1" stroke="none" stroke-width="1" fill="none" fill-rule="evenodd">
        <g id="Artboard-Copy" transform="translate(-40.000000, -118.000000)" fill="#EEEEEE" fill-rule="nonzero">
            <g id="Group" transform="translate(39.866000, 117.920000)">
                <path d="M56.2252052,96.08 L4.94181759,96.08 C3.25016961,96.08 2.02596904,95.702226 1.26917915,94.9466667 C0.512389267,94.1911073 0.134,92.9688973 0.134,91.28 L0.134,4.88 C0.134,3.19110267 0.512389267,1.96889267 1.26917915,1.21333333 C2.02596904,0.457774 3.25016961,0.08 4.94181759,0.08 L47.5444235,0.08 C56.2697657,0.08 62.7246414,1.74665 66.9092443,5.08 C71.0938472,8.41335 73.1861173,13.546632 73.1861173,20.48 L73.1861173,26.88 C73.1861173,30.613352 72.5406297,33.657766 71.2496352,36.0133333 C69.9586407,38.3689007 67.9776616,40.1244387 65.3066384,41.28 C71.0048211,41.813336 75.2338776,43.768872 77.9939349,47.1466667 C80.7539921,50.5244613 82.134,55.4577453 82.134,61.9466667 L82.134,74.2133333 C82.134,81.6800373 80.0194717,87.1910933 75.7903518,90.7466667 C71.5612318,94.30224 65.0395815,96.08 56.2252052,96.08 Z M30.1828599,22.7466667 L30.1828599,37.1466667 L41.5346515,37.1466667 C43.2262994,37.1466667 44.4950164,36.7022267 45.3408404,35.8133333 C46.1866644,34.92444 46.60957,33.59112 46.60957,31.8133333 L46.60957,28.08 C46.60957,26.3022133 46.1866644,24.9688933 45.3408404,24.08 C44.4950164,23.1911067 43.2262994,22.7466667 41.5346515,22.7466667 L30.1828599,22.7466667 Z M30.1828599,57.68 L30.1828599,73.4133333 L47.5444235,73.4133333 C49.2360714,73.4133333 50.5047884,72.9688933 51.3506124,72.08 C52.1964364,71.1911067 52.619342,69.8577867 52.619342,68.08 L52.619342,62.88 C52.619342,61.1022133 52.1964364,59.7911153 51.3506124,58.9466667 C50.5047884,58.102218 49.2360714,57.68 47.5444235,57.68 L30.1828599,57.68 Z" id="Combined-Shape"></path>
                <path d="M172.134,70.88 C172.134,74.9689093 171.536919,78.6799833 170.342738,82.0133333 C169.148557,85.3466833 167.025601,88.1910993 163.973806,90.5466667 C160.922011,92.902234 156.742441,94.74666 151.434971,96.08 C146.127501,97.41334 139.360578,98.08 131.134,98.08 C122.907422,98.08 116.140499,97.41334 110.833029,96.08 C105.525559,94.74666 101.345989,92.902234 98.2941942,90.5466667 C95.242399,88.1910993 93.1194429,85.3466833 91.9252621,82.0133333 C90.7310814,78.6799833 90.134,74.9689093 90.134,70.88 L90.134,4.88 C90.134,3.19110267 90.5099401,1.96889267 91.2618317,1.21333333 C92.0137233,0.457774 93.2300002,0.08 94.910699,0.08 L115.742414,0.08 C117.423113,0.08 118.63939,0.457774 119.391282,1.21333333 C120.143173,1.96889267 120.519113,3.19110267 120.519113,4.88 L120.519113,65.68 C120.519113,67.4577867 121.182537,68.9466607 122.509405,70.1466667 C123.836272,71.3466727 126.799565,71.9466667 131.399372,71.9466667 C136.087637,71.9466667 139.095158,71.3466727 140.422026,70.1466667 C141.748893,68.9466607 142.412317,67.4577867 142.412317,65.68 L142.412317,4.88 C142.412317,3.19110267 142.788257,1.96889267 143.540149,1.21333333 C144.29204,0.457774 145.508317,0.08 147.189016,0.08 L167.357301,0.08 C169.038,0.08 170.254277,0.457774 171.006168,1.21333333 C171.75806,1.96889267 172.134,3.19110267 172.134,4.88 L172.134,70.88 Z" id="Path"></path>
                <path d="M257.362916,96.08 L189.905084,96.08 C188.226361,96.08 187.011514,95.702226 186.260506,94.9466667 C185.509498,94.1911073 185.134,92.9688973 185.134,91.28 L185.134,4.88 C185.134,3.19110267 185.509498,1.96889267 186.260506,1.21333333 C187.011514,0.457774 188.226361,0.08 189.905084,0.08 L210.447253,0.08 C212.125976,0.08 213.340824,0.457774 214.091831,1.21333333 C214.842839,1.96889267 215.218337,3.19110267 215.218337,4.88 L215.218337,70.88 L233.374964,70.88 L233.374964,49.28 C233.374964,47.5911027 233.750462,46.3688927 234.50147,45.6133333 C235.252478,44.857774 236.467325,44.48 238.146048,44.48 L257.362916,44.48 C259.041639,44.48 260.256486,44.857774 261.007494,45.6133333 C261.758502,46.3688927 262.134,47.5911027 262.134,49.28 L262.134,91.28 C262.134,92.9688973 261.758502,94.1911073 261.007494,94.9466667 C260.256486,95.702226 259.041639,96.08 257.362916,96.08 Z" id="Path"></path>
                <path d="M343.362916,96.08 L275.905084,96.08 C274.226361,96.08 273.011514,95.702226 272.260506,94.9466667 C271.509498,94.1911073 271.134,92.9688973 271.134,91.28 L271.134,4.88 C271.134,3.19110267 271.509498,1.96889267 272.260506,1.21333333 C273.011514,0.457774 274.226361,0.08 275.905084,0.08 L296.447253,0.08 C298.125976,0.08 299.340824,0.457774 300.091831,1.21333333 C300.842839,1.96889267 301.218337,3.19110267 301.218337,4.88 L301.218337,70.88 L319.374964,70.88 L319.374964,49.28 C319.374964,47.5911027 319.750462,46.3688927 320.50147,45.6133333 C321.252478,44.857774 322.467325,44.48 324.146048,44.48 L343.362916,44.48 C345.041639,44.48 346.256486,44.857774 347.007494,45.6133333 C347.758502,46.3688927 348.134,47.5911027 348.134,49.28 L348.134,91.28 C348.134,92.9688973 347.758502,94.1911073 347.007494,94.9466667 C346.256486,95.702226 345.041639,96.08 343.362916,96.08 Z" id="Path"></path>
                <path d="M406.578637,96.08 L385.929848,96.08 C384.242411,96.08 383.021259,95.702226 382.266353,94.9466667 C381.511447,94.1911073 381.134,92.9688973 381.134,91.28 L381.134,4.88 C381.134,3.19110267 381.511447,1.96889267 382.266353,1.21333333 C383.021259,0.457774 384.242411,0.08 385.929848,0.08 L426.694554,0.08 C438.773045,0.08 447.032478,2.479976 451.4731,7.28 C455.913722,12.080024 458.134,18.346628 458.134,26.08 L458.134,43.1466667 C458.134,50.8800387 455.913722,57.1466427 451.4731,61.9466667 C447.032478,66.7466907 438.773045,69.1466667 426.694554,69.1466667 L411.374484,69.1466667 L411.374484,91.28 C411.374484,92.9688973 410.997037,94.1911073 410.242131,94.9466667 C409.487226,95.702226 408.266073,96.08 406.578637,96.08 Z M411.108048,25.0133333 L411.108048,45.1466667 L423.097668,45.1466667 C425.673229,45.1466667 427.36064,44.4800067 428.159952,43.1466667 C428.959264,41.8133267 429.358913,40.3022307 429.358913,38.6133333 L429.358913,31.5466667 C429.358913,29.8577693 428.959264,28.3466733 428.159952,27.0133333 C427.36064,25.6799933 425.673229,25.0133333 423.097668,25.0133333 L411.108048,25.0133333 Z" id="Combined-Shape"></path>
                <path d="M468.905084,96.08 C467.226361,96.08 466.011514,95.702226 465.260506,94.9466667 C464.509498,94.1911073 464.134,92.9688973 464.134,91.28 L464.134,75.4133333 C464.134,73.724436 464.509498,72.502226 465.260506,71.7466667 C466.011514,70.9911073 467.226361,70.6133333 468.905084,70.6133333 L482.025566,70.6133333 L482.025566,25.8133333 L468.905084,25.8133333 C467.226361,25.8133333 466.011514,25.4355593 465.260506,24.68 C464.509498,23.9244407 464.134,22.7022307 464.134,21.0133333 L464.134,4.88 C464.134,3.19110267 464.509498,1.96889267 465.260506,1.21333333 C466.011514,0.457774 467.226361,0.08 468.905084,0.08 L525.362916,0.08 C527.041639,0.08 528.256486,0.457774 529.007494,1.21333333 C529.758502,1.96889267 530.134,3.19110267 530.134,4.88 L530.134,21.0133333 C530.134,22.7022307 529.758502,23.9244407 529.007494,24.68 C528.256486,25.4355593 527.041639,25.8133333 525.362916,25.8133333 L512.507494,25.8133333 L512.507494,70.6133333 L525.362916,70.6133333 C527.041639,70.6133333 528.256486,70.9911073 529.007494,71.7466667 C529.758502,72.502226 530.134,73.724436 530.134,75.4133333 L530.134,91.28 C530.134,92.9688973 529.758502,94.1911073 529.007494,94.9466667 C528.256486,95.702226 527.041639,96.08 525.362916,96.08 L468.905084,96.08 Z" id="Path"></path>
                <path d="M586.934,96.08 L565.334,96.08 C563.645103,96.08 562.422893,95.702226 561.667333,94.9466667 C560.911774,94.1911073 560.534,92.9688973 560.534,91.28 L560.534,25.8133333 L540.934,25.8133333 C539.245103,25.8133333 538.022893,25.4355593 537.267333,24.68 C536.511774,23.9244407 536.134,22.7022307 536.134,21.0133333 L536.134,4.88 C536.134,3.19110267 536.511774,1.96889267 537.267333,1.21333333 C538.022893,0.457774 539.245103,0.08 540.934,0.08 L611.334,0.08 C613.022897,0.08 614.245107,0.457774 615.000667,1.21333333 C615.756226,1.96889267 616.134,3.19110267 616.134,4.88 L616.134,21.0133333 C616.134,22.7022307 615.756226,23.9244407 615.000667,24.68 C614.245107,25.4355593 613.022897,25.8133333 611.334,25.8133333 L591.734,25.8133333 L591.734,91.28 C591.734,92.9688973 591.356226,94.1911073 590.600667,94.9466667 C589.845107,95.702226 588.622897,96.08 586.934,96.08 Z" id="Path"></path>
                <path d="M686.343125,96.08 L653.871643,96.08 C642.7816,96.08 634.552912,93.8578 629.185331,89.4133333 C623.81775,84.9688667 621.134,78.1244907 621.134,68.88 L621.134,27.4133333 C621.134,18.1688427 623.81775,11.3022447 629.185331,6.81333333 C634.552912,2.324422 642.7816,0.08 653.871643,0.08 L686.343125,0.08 C688.028812,0.08 689.248698,0.457774 690.002821,1.21333333 C690.756944,1.96889267 691.134,3.19110267 691.134,4.88 L691.134,21.0133333 C691.134,22.7022307 690.756944,23.9244407 690.002821,24.68 C689.248698,25.4355593 688.028812,25.8133333 686.343125,25.8133333 L659.594076,25.8133333 C656.843745,25.8133333 654.803208,26.3688833 653.472403,27.48 C652.141598,28.5911167 651.476205,30.2577667 651.476205,32.48 L651.476205,64.2133333 C651.476205,66.4355667 652.141598,68.0577727 653.472403,69.08 C654.803208,70.1022273 656.843745,70.6133333 659.594076,70.6133333 L686.343125,70.6133333 C688.028812,70.6133333 689.248698,70.9911073 690.002821,71.7466667 C690.756944,72.502226 691.134,73.724436 691.134,75.4133333 L691.134,91.28 C691.134,92.9688973 690.756944,94.1911073 690.002821,94.9466667 C689.248698,95.702226 688.028812,96.08 686.343125,96.08 Z" id="Path"></path>
                <path d="M725.66218,96.08 L704.945594,96.08 C703.252617,96.08 702.027455,95.702226 701.270071,94.9466667 C700.512686,94.1911073 700.134,92.9688973 700.134,91.28 L700.134,4.88 C700.134,3.19110267 700.512686,1.96889267 701.270071,1.21333333 C702.027455,0.457774 703.252617,0.08 704.945594,0.08 L725.66218,0.08 C727.355157,0.08 728.580319,0.457774 729.337704,1.21333333 C730.095088,1.96889267 730.473775,3.19110267 730.473775,4.88 L730.473775,33.8133333 L752.794225,33.8133333 L752.794225,4.88 C752.794225,3.19110267 753.172912,1.96889267 753.930296,1.21333333 C754.687681,0.457774 755.912843,0.08 757.60582,0.08 L778.322406,0.08 C780.015383,0.08 781.240545,0.457774 781.997929,1.21333333 C782.755314,1.96889267 783.134,3.19110267 783.134,4.88 L783.134,91.28 C783.134,92.9688973 782.755314,94.1911073 781.997929,94.9466667 C781.240545,95.702226 780.015383,96.08 778.322406,96.08 L757.60582,96.08 C755.912843,96.08 754.687681,95.702226 753.930296,94.9466667 C753.172912,94.1911073 752.794225,92.9688973 752.794225,91.28 L752.794225,61.68 L730.473775,61.68 L730.473775,91.28 C730.473775,92.9688973 730.095088,94.1911073 729.337704,94.9466667 C728.580319,95.702226 727.355157,96.08 725.66218,96.08 Z" id="Path"></path>
            </g>
        </g>
    </g>
</svg>